<svg width="88" height="88" viewBox="0 0 88 88" xmlns="http://www.w3.org/2000/svg"><path d="M71 39h-7v3h5c.106.242.24.369 0 1v2c.24.33.106.458 0 0h-5v7c-.33-.13-.468 0-1 0h-3c.132 0 0-.13 0 0v-16c0 .132.132 0 0 0h11c-.109 0 0 .132 0 0v3c0 .089-.139.217 0 0zm-19 8c0 2.466-.461 4.016-1 5-1.339.616-3.121 1-6 1-2.763 0-4.619-.362-6-1-.527-.88-1-2.396-1-5v-11c.009.127.14 0 0 0h4c-.355 0-.249.126 0 0v11c-.238 1.654.064 2.091 0 2 .443.388 1.065.639 3 1 1.96-.361 2.573-.613 3-1-.064.091.244-.358 0-2 .244.143.235-10.694 0-11 .269.11.388 0 1 0h3c-.122 0-.018.122 0 0v11zm-22 5c0-.13-.129 0 0 0h-3c-.467 0-.597-.13-1 0v-7h-5v7c-.405-.13-.535 0-1 0h-3c.128 0 0-.13 0 0v-16c0 .132.127 0 0 0h3c.465 0 .595.132 1 0v6h5v-6c.402.132.532 0 1 0h3c-.106 0-.001.132 0 0v16zm-30 36h88v-88h-88v88z" fill="#0A0A08"/></svg>